HIERARCHY
ROOT Hips
{
	OFFSET 0.0000 0.0000 0.0000
	CHANNELS 6 Xposition Yposition Zposition Zrotation Xrotation Yrotation
	JOINT Ab
	{
		OFFSET -0.0000 8.0846 -0.0000
		CHANNELS 3 Zrotation Xrotation Yrotation
		JOINT Chest
		{
			OFFSET -0.0000 25.0068 -0.0000
			CHANNELS 3 Zrotation Xrotation Yrotation
			JOINT Neck
			{
				OFFSET -0.0000 25.0068 0.0000
				CHANNELS 3 Zrotation Xrotation Yrotation
				JOINT Head
				{
					OFFSET -0.0000 10.7556 0.0000
					CHANNELS 3 Zrotation Xrotation Yrotation
					End Site
					{
						OFFSET -0.0000 16.6222 0.0000
					}
				}
			}
			JOINT LeftCollar
			{
				OFFSET -0.0000 25.0068 0.0000
				CHANNELS 3 Zrotation Xrotation Yrotation
				JOINT LeftShoulder
				{
					OFFSET 19.5556 -0.0000 0.0000
					CHANNELS 3 Zrotation Xrotation Yrotation
					JOINT LeftElbow
					{
						OFFSET 27.1828 0.0000 0.0000
						CHANNELS 3 Zrotation Xrotation Yrotation
						JOINT LeftWrist
						{
							OFFSET 23.3157 0.0000 0.0000
							CHANNELS 3 Zrotation Xrotation Yrotation
							End Site
							{
								OFFSET 0.0000 -14.6667 0.0000
							}
						}
					}
				}
			}
			JOINT RightCollar
			{
				OFFSET -0.0000 25.0068 0.0000
				CHANNELS 3 Zrotation Xrotation Yrotation
				JOINT RightShoulder
				{
					OFFSET -19.5556 0.0000 0.0000
					CHANNELS 3 Zrotation Xrotation Yrotation
					JOINT RightElbow
					{
						OFFSET -27.1828 0.0000 0.0000
						CHANNELS 3 Zrotation Xrotation Yrotation
						JOINT RightWrist
						{
							OFFSET -23.3157 0.0000 0.0000
							CHANNELS 3 Zrotation Xrotation Yrotation
							End Site
							{
								OFFSET -0.0000 -14.6667 0.0000
							}
						}
					}
				}
			}
		}
	}
	JOINT LeftHip
	{
		OFFSET 11.7333 0.0000 0.0000
		CHANNELS 3 Zrotation Xrotation Yrotation
		JOINT LeftKnee
		{
			OFFSET -0.0000 -40.8688 0.0000
			CHANNELS 3 Zrotation Xrotation Yrotation
			JOINT LeftAnkle
			{
				OFFSET -0.0000 -44.4337 0.0000
				CHANNELS 3 Zrotation Xrotation Yrotation
				End Site
				{
					OFFSET -0.0000 -4.8889 16.6222
				}
			}
		}
	}
	JOINT RightHip
	{
		OFFSET -11.7333 0.0000 0.0000
		CHANNELS 3 Zrotation Xrotation Yrotation
		JOINT RightKnee
		{
			OFFSET -0.0000 -40.8688 0.0000
			CHANNELS 3 Zrotation Xrotation Yrotation
			JOINT RightAnkle
			{
				OFFSET -0.0000 -44.4337 0.0000
				CHANNELS 3 Zrotation Xrotation Yrotation
				End Site
				{
					OFFSET -0.0000 -4.8889 16.6222
				}
			}
		}
	}
}
MOTION
Frames: 19
Frame Time: 0.010000
-4.6928 88.7650 191.1741 2.4851 359.7636 177.6529 1.4729 358.9589 358.1058 359.3524 11.3486 358.1576 0.9183 343.9804 0.9073 3.0844 10.8880 0.4838 338.6589 358.6287 7.3523 301.5667 31.0061 354.6356 15.3137 354.6465 321.6450 82.7395 2.3324 341.4548 22.0687 359.2026 355.9079 61.1921 43.0700 6.8619 337.8566 354.2384 28.5002 276.7448 353.0227 19.3168 2.2461 357.3808 357.7732 359.3987 11.0424 356.7011 359.1175 352.0317 21.7849 1.9698 351.6927 359.5280 359.2364 18.7569 7.9872 355.7547 345.3723 336.9830 
-4.7105 88.7661 191.1672 2.4927 359.7524 177.6623 1.4638 358.9674 358.1139 359.3481 11.3302 358.1649 0.8797 343.9984 0.8554 3.0586 10.9161 0.4332 338.6542 358.6067 7.3932 301.5894 31.1518 354.6204 15.4497 354.5860 321.7004 82.6212 2.2926 341.5207 22.0598 359.2130 355.9336 61.2180 43.1087 6.8319 337.7670 354.2491 28.5301 276.7445 353.0911 19.2894 2.2437 357.4512 357.9174 359.4612 10.8814 356.4712 359.0693 352.0914 21.8039 1.9653 351.6927 359.5263 359.2457 18.7439 7.9006 355.8126 345.3613 337.0528 
-4.7331 88.7661 191.1592 2.4880 359.7517 177.6671 1.4543 358.9894 358.1223 359.3339 11.3128 358.1759 0.8542 343.9708 0.8221 3.0652 10.9827 0.4031 338.6612 358.6258 7.3657 301.5628 31.0000 354.6570 15.3389 354.6647 321.7508 82.6929 2.2177 341.3922 22.0632 359.1884 355.9313 61.1995 43.1342 6.8244 337.7193 354.2449 28.5550 276.7375 353.0832 19.2284 2.2230 357.3676 357.7788 359.4007 11.0563 356.6947 359.1239 352.0155 21.7743 1.9407 351.6982 359.5419 359.2566 18.7393 7.8636 355.7455 345.3812 337.0589 
-4.7529 88.7669 191.1529 2.4910 359.7406 177.6692 1.4510 359.0023 358.1261 359.3156 11.2930 358.1820 0.8111 343.9587 0.7967 3.0908 11.0333 0.3792 338.6699 358.6185 7.3833 301.5283 31.0244 354.6695 15.4114 354.6206 321.7572 82.6287 2.2300 341.3731 22.0797 359.2092 355.9411 61.1499 43.0950 6.8388 337.8643 354.3062 28.5666 276.6277 353.0608 19.5145 2.2258 357.3555 357.7392 359.3935 11.0559 356.6068 359.1433 352.0084 21.8539 1.9326 351.6889 359.5661 359.2537 18.7418 7.8802 355.8242 345.3467 337.0516 
-4.7776 88.7680 191.1380 2.4835 359.7487 177.6700 1.4285 359.0111 358.1369 359.3094 11.3037 358.1933 0.8013 343.9351 0.7667 3.0511 11.1032 0.3563 338.6795 358.6028 7.3784 301.5007 30.9831 354.7066 15.4143 354.6348 321.7629 82.6441 2.2177 341.3658 22.0756 359.2163 355.9591 61.1343 43.0951 6.8508 337.8398 354.3003 28.5984 276.6587 353.0550 19.5850 2.1972 357.3690 357.7842 359.3845 11.0714 356.6430 359.1721 352.0008 21.8150 1.8983 351.7197 359.5967 359.2796 18.7150 7.8538 355.8174 345.3464 337.0521 
-4.8052 88.7674 191.1312 2.4907 359.7352 177.6952 1.4265 359.0090 358.1370 359.3088 11.3081 358.1940 0.7134 343.8818 0.7018 3.0887 11.2052 0.2904 338.6720 358.6341 7.3674 301.5113 30.9583 354.7028 15.2604 354.7154 321.8434 83.1266 2.1004 341.4909 22.0656 359.2083 355.9524 61.1097 43.0897 6.8744 337.8555 354.2784 28.6272 276.5465 353.0622 19.6365 2.1889 357.3441 357.7610 359.4074 11.0829 356.5313 359.1649 351.9946 21.8621 1.8775 351.7202 359.5831 359.2996 18.6993 7.7484 355.7293 345.3675 337.1186 
-4.8361 88.7661 191.1192 2.4896 359.7498 177.7038 1.4193 359.0341 358.1444 359.2975 11.3125 358.2026 0.6418 343.8585 0.6393 3.1101 11.2674 0.2369 338.6753 358.6081 7.3992 301.5063 31.0669 354.6830 15.4558 354.6069 321.8703 82.6369 2.1094 341.3884 22.0527 359.2174 355.9782 61.1073 43.0859 6.8696 337.8397 354.2896 28.6435 276.6886 353.0856 19.6233 2.1774 357.3573 357.7276 359.3760 11.0962 356.5451 359.1615 351.9773 21.8815 1.8436 351.7546 359.6073 359.3190 18.6804 7.7615 355.7652 345.3604 337.0955 
-4.8711 88.7664 191.0984 2.4820 359.7791 177.7163 1.4085 359.0591 358.1511 359.2809 11.3266 358.2103 0.6053 343.8329 0.6060 3.1193 11.3325 0.2069 338.6748 358.6108 7.4011 301.4944 31.0953 354.7005 15.3795 354.6839 321.9389 83.1272 1.9710 341.6062 22.0468 359.2161 355.9838 61.0667 43.1185 6.8904 337.8195 354.2793 28.6655 276.7122 353.0680 19.6069 2.1481 357.3969 357.8062 359.3892 11.0965 356.4220 359.2332 351.9864 21.9188 1.7945 351.8125 359.6376 359.3534 18.6511 7.7410 355.8085 345.3362 337.1035 
-4.9050 88.7679 191.0844 2.4792 359.7837 177.7349 1.4026 359.0750 358.1485 359.2629 11.3095 358.2112 0.5574 343.8411 0.5771 3.1449 11.3944 0.1763 338.6652 358.6036 7.4446 301.5221 31.3012 354.6759 15.4829 354.6202 322.0383 83.1279 1.9050 341.7230 22.0407 359.2299 355.9914 61.0263 43.1778 6.9366 337.8223 354.2715 28.6118 276.7553 353.0244 19.5755 2.1285 357.3962 357.8071 359.3763 11.1155 356.4159 359.2419 351.9798 21.9004 1.7512 351.8454 359.6627 359.3895 18.6181 7.6553 355.7874 345.3403 337.1396 
-4.9515 88.7667 191.0726 2.4606 359.7819 177.7532 1.4016 359.0776 358.1507 359.2244 11.3180 358.2165 0.5301 343.8199 0.5561 3.1467 11.4542 0.1579 338.6559 358.5783 7.5196 301.5678 31.6038 354.6097 15.6781 354.5413 322.1443 83.0185 1.8441 341.9347 22.0339 359.2264 356.0028 60.9782 43.2321 6.9833 337.7854 354.2774 28.6036 276.7620 352.9803 19.5542 2.0828 357.3904 357.7847 359.3654 11.1288 356.4184 359.2725 351.9801 21.8941 1.6694 351.8750 359.7282 359.4661 18.5741 7.5645 355.8552 345.3164 337.1747 
-4.9960 88.7693 191.0589 2.4499 359.7884 177.7757 1.3899 359.0868 358.1534 359.2113 11.3241 358.2211 0.4746 343.8100 0.5055 3.1393 11.5334 0.1117 338.6395 358.5649 7.5786 301.6076 31.8566 354.5489 15.8503 354.5030 322.2910 82.8187 1.7831 342.0747 22.0181 359.2108 356.0225 60.9473 43.2496 6.9912 337.7932 354.2609 28.6316 276.7504 352.9936 19.5708 2.0529 357.4029 357.7831 359.3477 11.1280 356.3721 359.3526 351.9882 21.9404 1.6080 351.9088 359.7680 359.5072 18.5457 7.5159 355.8058 345.3069 337.1820 
-5.0429 88.7717 191.0370 2.4444 359.8043 177.8068 1.3879 359.0951 358.1582 359.1880 11.3340 358.2278 0.4101 343.8281 0.4282 3.1378 11.5971 0.0434 338.6240 358.5886 7.6174 301.6623 32.0802 354.4833 16.0491 354.4429 322.3869 82.3440 1.8256 342.1058 22.0120 359.2268 356.0161 60.8753 43.2409 7.0559 337.8788 354.2840 28.6449 276.7303 353.0117 19.6455 2.0261 357.4941 357.8733 359.3576 10.9965 356.2599 359.3740 352.0474 21.9258 1.5501 351.9738 359.8528 359.5656 18.4901 7.3909 355.7878 345.2999 337.2210 
-5.0981 88.7733 191.0232 2.4304 359.7944 177.8592 1.3826 359.0894 358.1486 359.1674 11.3267 358.2205 0.3074 343.8313 0.3267 3.1727 11.6877 359.9587 338.6138 358.5661 7.6249 301.6668 32.2753 354.4833 16.2139 354.3934 322.4391 82.2900 1.7782 342.2665 22.0031 359.2106 356.0086 60.8260 43.2729 7.0899 337.8565 354.2599 28.6838 276.8151 353.0576 19.6693 1.9876 357.4722 357.8105 359.3298 11.0095 356.2928 359.3759 352.0468 21.8966 1.4733 352.0106 359.9227 359.6236 18.4403 7.3396 355.7891 345.2755 337.1952 
-5.1522 88.7775 191.0107 2.4185 359.7853 177.8916 1.3661 359.0948 358.1533 359.1636 11.3087 358.2249 0.2412 343.8553 0.2837 3.2250 11.7216 359.9240 338.5917 358.5806 7.6125 301.6448 32.2009 354.5184 16.1610 354.4566 322.4463 82.2754 1.7543 342.2019 21.9955 359.2306 356.0190 60.7476 43.2824 7.1394 337.8764 354.2546 28.6910 276.8736 353.1257 19.5034 1.9575 357.4566 357.7544 359.2882 11.0198 356.3265 359.4322 352.0692 21.9017 1.4140 352.0329 0.0055 359.6647 18.3997 7.2466 355.8179 345.2556 337.2050 
-5.2112 88.7805 190.9905 2.4095 359.7878 177.9159 1.3497 359.1041 358.1721 359.1560 11.2971 358.2460 0.1354 343.8227 0.2245 3.3213 11.8589 359.8484 338.5834 358.5634 7.5964 301.6085 32.1737 354.5555 16.1630 354.4689 322.4059 82.2874 1.7849 342.1703 21.9851 359.2324 356.0207 60.6989 43.3329 7.1782 337.6626 354.1893 28.6471 277.1097 353.0835 18.7588 1.9158 357.4450 357.7182 359.2676 11.0589 356.3856 359.5002 352.0605 21.8523 1.3555 352.0781 0.0892 359.7039 18.3515 7.1946 355.7955 345.2705 337.2217 
-5.2782 88.7820 190.9721 2.3909 359.7770 177.9573 1.3345 359.0904 358.1756 359.1375 11.3056 358.2512 0.0642 343.7967 0.1571 3.3783 11.9657 359.7681 338.5762 358.5664 7.5976 301.6144 32.2571 354.5409 16.1590 354.4881 322.4537 82.2939 1.7467 342.1735 21.9789 359.2136 355.9908 60.6170 43.4252 7.2650 337.6916 354.2272 28.6220 276.8810 353.0652 19.0254 1.8583 357.3935 357.6409 359.2454 11.1381 356.4188 359.6744 352.0513 21.8800 1.2830 352.0990 0.1577 359.7422 18.3284 7.1475 355.6086 345.3563 337.3481 
-5.3485 88.7845 190.9572 2.3702 359.7550 177.9967 1.3115 359.0827 358.1698 359.1303 11.2725 358.2457 2.3165 344.6889 0.3239 358.4633 10.1791 0.1174 338.5762 358.5513 7.5675 301.5512 32.1600 354.5994 16.0954 354.5094 322.4406 82.3252 1.7361 342.0706 21.9821 359.1968 355.9786 60.4963 43.4503 7.3364 337.8929 354.2981 28.7006 276.6821 353.2526 19.6632 1.7956 357.4215 357.7200 359.2615 11.0401 356.3335 359.7059 352.0935 21.8520 1.2115 352.1062 0.2318 359.7714 18.3065 7.0866 355.6445 345.3297 337.3340 
-5.4199 88.7869 190.9464 2.3639 359.7244 178.0391 1.2871 359.0746 358.1593 359.1481 11.2387 358.2332 8.7866 347.1741 0.7132 344.4376 4.8804 0.3001 338.5678 358.5616 7.5612 301.5074 32.0830 354.6156 15.9720 354.5685 322.4646 82.4277 1.7376 341.9666 21.9735 359.2180 355.9858 60.3888 43.4415 7.4093 337.7786 354.2202 28.7460 277.1244 353.3530 18.9550 1.7505 357.3683 357.6809 359.2433 11.0778 356.3189 359.7533 352.0762 21.8616 1.1614 352.0920 0.2922 359.7810 18.2977 7.0284 355.7249 345.2986 337.3347 
-5.4960 88.7904 190.9365 2.3514 359.6877 178.0577 1.2476 359.0587 358.1619 359.1718 11.2171 358.2341 8.7760 347.1148 0.6958 344.6341 5.2142 0.4085 338.5680 358.5345 7.5762 301.4325 32.0698 354.6419 15.9775 354.5484 322.4433 82.4132 1.7507 341.9066 21.9595 359.2234 356.0041 60.2846 43.4912 7.4878 337.7634 354.2095 28.7574 277.1476 353.3312 18.8937 1.6943 357.3092 357.6400 359.2269 11.1236 356.3486 359.7839 352.0441 21.8615 1.1039 352.0627 0.3903 359.7996 18.3012 6.9423 355.7649 345.2686 337.3288 
